<svg width="40" height="35" viewBox="0 0 40 35" fill="none" xmlns="http://www.w3.org/2000/svg">
<path d="M37.7428 23.3004H2.25722C0.997375 23.3004 0 24.3135 0 25.4785V27.2514C0 28.4164 0.997375 29.3788 2.25722 29.3788H2.78215V29.8853C2.78215 32.6712 5.14436 34.9 7.979 34.9H32.021C34.9081 34.9 37.2178 32.6206 37.2178 29.8853V29.3788H37.7428C38.9501 29.3788 40 28.4164 40 27.2007V25.4278C40 24.3135 39.0026 23.3004 37.7428 23.3004ZM35.6955 29.8853C35.6955 31.8101 34.0682 33.3804 32.0735 33.3804H7.92651C5.93176 33.3804 4.30446 31.8101 4.30446 29.8853V29.3788H35.6955V29.8853ZM38.4252 27.2007C38.4252 27.5553 38.1102 27.8592 37.7428 27.8592H2.25722C1.88976 27.8592 1.5748 27.5553 1.5748 27.2007V25.4278C1.5748 25.1239 1.88976 24.82 2.25722 24.82H37.7953C38.1627 24.82 38.4777 25.1239 38.4777 25.4785V27.2007H38.4252Z" fill="#81B3D2"/>
<path d="M8.50395 19.1973L11.3386 21.2234L14.2257 19.1973L17.1129 21.2234L20 19.1973L22.8347 21.2234L25.7218 19.1973L28.6089 21.2234L31.4961 19.1973L34.3832 21.2234L37.6903 18.8427L36.7979 17.627L34.3832 19.2986L31.4961 17.2725L28.6089 19.2986L25.7218 17.2725L22.8347 19.2986L20 17.2725L17.1129 19.2986L14.2257 17.2725L11.3386 19.2986L8.50395 17.2725L5.61682 19.2986L3.20212 17.627L2.25723 18.8427L5.61682 21.2234L8.50395 19.1973Z" fill="#81B3D2"/>
<path d="M36.7184 14.2568L36.7208 14.3086L36.7338 14.3588C36.7322 14.3525 36.7323 14.3546 36.7333 14.3676C36.7348 14.3883 36.7384 14.4368 36.7401 14.5233C36.7424 14.6414 36.7409 14.7886 36.7377 14.945C36.7356 15.0443 36.7327 15.1502 36.7297 15.2531H3.22967V15.25V15.2465V15.2429V15.2393V15.2357V15.2321V15.2285V15.2248V15.2212V15.2176V15.214V15.2104V15.2067V15.2031V15.1995V15.1958V15.1922V15.1885V15.1849V15.1812V15.1776V15.1739V15.1703V15.1666V15.1629V15.1593V15.1556V15.1519V15.1482V15.1445V15.1409V15.1372V15.1335V15.1298V15.1261V15.1224V15.1187V15.115V15.1113V15.1076V15.1039V15.1002V15.0965V15.0928V15.0891V15.0854V15.0817V15.078V15.0743V15.0706V15.0668V15.0631V15.0594V15.0557V15.052V15.0483V15.0446V15.0408V15.0371V15.0334V15.0297V15.026V15.0222V15.0185V15.0148V15.0111V15.0074V15.0036V14.9999V14.9962V14.9925V14.9888V14.985V14.9813V14.9776V14.9739V14.9702V14.9665V14.9628V14.959V14.9553V14.9516V14.9479V14.9442V14.9405V14.9368V14.9331V14.9294V14.9257V14.922V14.9183V14.9146V14.9109V14.9072V14.9035V14.8999V14.8962V14.8925V14.8888V14.8851V14.8815V14.8778V14.8741V14.8705V14.8668V14.8631V14.8595V14.8558V14.8522V14.8485V14.8449V14.8412V14.8376V14.8339V14.8303V14.8267V14.8231V14.8194V14.8158V14.8122V14.8086V14.805V14.8014V14.7978V14.7942V14.7906V14.787V14.7834V14.7798V14.7763V14.7727V14.7691V14.7656V14.762V14.7585V14.7549V14.7514V14.7478V14.7443V14.7408V14.7373V14.7338V14.7302V14.7267V14.7232V14.7197V14.7163V14.7128V14.7093V14.7058V14.7024V14.6989V14.6954V14.692V14.6886V14.6851V14.6817V14.6783V14.6749V14.6714V14.668V14.6646V14.6613V14.6579V14.6545V14.6511V14.6478V14.6444V14.6411V14.6377V14.6344V14.6311V14.6277V14.6244V14.6211V14.6178V14.6145V14.6113V14.608V14.6047V14.6015V14.5982V14.595V14.5917V14.5885V14.5853V14.5821V14.5789V14.5757V14.5725V14.5693V14.5662V14.563V14.5598V14.5567V14.5536V14.5505V14.5473V14.5442V14.5411V14.5381V14.535V14.5319V14.5289V14.5258V14.5228V14.5197V14.5167V14.5137V14.5107V14.5077V14.5047V14.5018V14.4988V14.4959V14.4929V14.49V14.4871V14.4842V14.4813V14.4784V14.4755V14.4726V14.4698V14.4669V14.4641V14.4613V14.4585V14.4557V14.4529V14.4501V14.4473V14.4446V14.4418V14.4391V14.4364V14.4337V14.431V14.4283V14.4256V14.423V14.4203V14.4177V14.415V14.4124V14.4098V14.4072V14.4047V14.4021V14.3996V14.397V14.3945V14.392V14.3895V14.387V14.3845V14.3821V14.3796V14.3772V14.3748V14.3724V14.37V14.3676V14.3652V14.3629V14.3605V14.3582V14.3559V14.3536V14.3513V14.349V14.3468V14.3445V14.3423V14.3401V14.3379V14.3357V14.3335V14.3314V14.3292V14.3271V14.325V14.3229V14.3208V14.3187V14.3167V14.3147V14.3126V14.3106V14.3086V14.3067V14.3047V14.3028V14.3008V14.2989V14.297V14.2951V14.2933V14.2914V14.2896V14.2878V14.286V14.2842V14.2824V14.2806V14.2789V14.2772V14.2755V14.2738V14.2721V14.2705V14.2688V14.2672V14.2656V14.264V14.2624V14.2609V14.2594V14.2578V14.2563V14.2549V14.2534V14.2519V14.2505V14.2491V14.2477V14.2463V14.2453C3.58865 6.67871 10.9121 0.5 20 0.5C29.0905 0.5 36.3662 6.6832 36.7184 14.2568ZM35.6431 14.7335H36.1659L36.1426 14.2112C35.8125 6.8331 28.5901 1.01959 20 1.01959C11.4085 1.01959 4.19 6.83338 3.80515 14.2075L3.7777 14.7335H4.30447H35.6431Z" fill="#81B3D2" stroke="#81B3D2"/>
<path d="M20 8.61109C20.5798 8.61109 21.0499 8.15752 21.0499 7.59802C21.0499 7.03852 20.5798 6.58496 20 6.58496C19.4202 6.58496 18.9501 7.03852 18.9501 7.59802C18.9501 8.15752 19.4202 8.61109 20 8.61109Z" fill="#81B3D2"/>
<path d="M15.8005 6.12866C16.3803 6.12866 16.8504 5.6751 16.8504 5.1156C16.8504 4.5561 16.3803 4.10254 15.8005 4.10254C15.2207 4.10254 14.7506 4.5561 14.7506 5.1156C14.7506 5.6751 15.2207 6.12866 15.8005 6.12866Z" fill="#81B3D2"/>
<path d="M24.1995 6.12866C24.7793 6.12866 25.2493 5.6751 25.2493 5.1156C25.2493 4.5561 24.7793 4.10254 24.1995 4.10254C23.6196 4.10254 23.1496 4.5561 23.1496 5.1156C23.1496 5.6751 23.6196 6.12866 24.1995 6.12866Z" fill="#81B3D2"/>
</svg>
