<svg width="32" height="38" viewBox="0 0 32 38" fill="none" xmlns="http://www.w3.org/2000/svg">
<path d="M17.961 10.7583L18.1841 11.7058H30.527H30.5778C31.0536 11.7058 31.5 12.1303 31.5 12.6747V18.3475C31.5 18.8415 31.1041 19.2658 30.5778 19.2658H30.527H30.027V19.7658V37.5H2.0746V19.7658V19.2658H1.5746H1.42222C0.923403 19.2658 0.5 18.8689 0.5 18.3475V12.6747C0.5 12.1807 0.89592 11.7565 1.42222 11.7565H12.7492L12.99 10.8182C12.7002 10.659 12.3978 10.4969 12.0876 10.3306C11.0395 9.76886 9.90192 9.15909 8.85896 8.44977C7.50479 7.52878 6.3982 6.49531 5.89652 5.29013L5.8966 5.2901L5.89298 5.28183C5.37905 4.10739 5.71477 2.98873 6.45451 2.09787C7.20681 1.19189 8.32044 0.598822 9.18621 0.510173C10.3779 0.424091 11.1609 0.900609 11.7007 1.39408L11.7027 1.39585C12.7078 2.30492 13.448 3.6737 14.0614 5.24037C14.5029 6.36808 14.8637 7.55506 15.2142 8.70797C15.3513 9.15913 15.4869 9.60508 15.625 10.0402L16.1542 11.7065L16.5861 10.0124C16.6593 9.72529 16.7318 9.43075 16.8054 9.13173C17.1224 7.84419 17.4598 6.47362 17.9609 5.25448C18.5795 3.74934 19.3971 2.60758 20.597 2.15076C22.3975 1.46706 24.4075 2.74555 24.9108 4.48691C24.9976 4.92222 24.971 5.61126 24.0975 6.6247C23.1903 7.67718 21.3932 9.04708 17.961 10.7583ZM24.3676 4.49709L24.3676 4.49709L24.3669 4.49237C24.2579 3.80422 23.7227 3.2547 23.152 2.91322C22.5722 2.56635 21.8363 2.35931 21.1636 2.45441C20.4208 2.55393 19.8341 3.00333 19.3792 3.56972C18.9246 4.13573 18.5675 4.85897 18.2825 5.60047C17.7752 6.92039 17.4612 8.3968 17.2576 9.35406C17.2327 9.47148 17.2093 9.58108 17.1875 9.68163L16.941 10.8187L17.9356 10.215C18.4126 9.92548 18.8971 9.68034 19.4106 9.42058C19.5039 9.37337 19.5981 9.32568 19.6935 9.27715C20.3054 8.96572 20.9489 8.62586 21.6092 8.17862C22.0428 7.89877 22.7663 7.41909 23.3582 6.82199C23.9314 6.24388 24.5063 5.43042 24.3676 4.49709ZM9.47126 8.32699L9.47121 8.32706L9.47859 8.33189C10.6883 9.12355 11.8592 9.67673 13.0187 10.2245C13.4482 10.4274 13.8761 10.6296 14.3039 10.8429L15.2874 11.3333L15.0109 10.2696C14.9702 10.113 14.9287 9.95204 14.8862 9.78736C14.5608 8.52547 14.1793 7.0461 13.6759 5.67124C13.1117 4.1306 12.3661 2.63677 11.302 1.71355C10.3398 0.852958 9.01428 0.926552 7.99788 1.40143C6.98963 1.87249 6.08544 2.83111 6.05259 3.99885C6.02096 5.04861 6.66901 5.96256 7.35956 6.65773C8.06459 7.36746 8.9155 7.94913 9.47126 8.32699ZM12.7492 36.9805H13.2492V36.4805V19.7658V19.2658H12.7492H3.04762H2.54762V19.7658V36.4805V36.9805H3.04762H12.7492ZM12.7492 18.7462H13.2492V18.2462V12.7253V12.2253H12.7492H1.52381H1.02381V12.7253V18.2462V18.7462H1.52381H12.7492ZM17.8286 36.9805H18.3286V36.4805V12.7253V12.2253H17.8286H14.2222H13.7222V12.7253V36.4805V36.9805H14.2222H17.8286ZM18.8524 36.4805V36.9805H19.3524H29.0032H29.054H29.554V36.4805V19.7658V19.2658H29.054H19.3524H18.8524V19.7658V36.4805ZM30.4762 18.7462H30.9762V18.2462V12.7253V12.2253H30.4762H19.3524H18.8524V12.7253V18.2462V18.7462H19.3524H30.4762Z" fill="#81B3D2" stroke="#81B3D2"/>
</svg>
