<svg width="23" height="21" viewBox="0 0 23 21" fill="none" xmlns="http://www.w3.org/2000/svg">
<path opacity="0.3" d="M13.4534 3.88088L13.7914 2.24002L12.6093 3.42721L8.00932 8.04721L7.86364 8.19353V8.4V18.9V19.4H8.36364H17.7727H18.1055L18.234 19.093L21.2658 11.848L21.3045 11.7554V11.655V11.6544V11.6538V11.6532V11.6526V11.652V11.6514V11.6508V11.6502V11.6496V11.649V11.6484V11.6478V11.6472V11.6466V11.646V11.6455V11.6449V11.6443V11.6437V11.6432V11.6426V11.642V11.6415V11.6409V11.6404V11.6398V11.6392V11.6387V11.6381V11.6376V11.6371V11.6365V11.636V11.6354V11.6349V11.6344V11.6338V11.6333V11.6328V11.6323V11.6317V11.6312V11.6307V11.6302V11.6297V11.6292V11.6287V11.6282V11.6276V11.6271V11.6266V11.6261V11.6257V11.6252V11.6247V11.6242V11.6237V11.6232V11.6227V11.6222V11.6218V11.6213V11.6208V11.6203V11.6199V11.6194V11.6189V11.6185V11.618V11.6176V11.6171V11.6166V11.6162V11.6157V11.6153V11.6148V11.6144V11.614V11.6135V11.6131V11.6126V11.6122V11.6118V11.6113V11.6109V11.6105V11.6101V11.6096V11.6092V11.6088V11.6084V11.608V11.6075V11.6071V11.6067V11.6063V11.6059V11.6055V11.6051V11.6047V11.6043V11.6039V11.6035V11.6031V11.6027V11.6024V11.602V11.6016V11.6012V11.6008V11.6004V11.6001V11.5997V11.5993V11.5989V11.5986V11.5982V11.5978V11.5975V11.5971V11.5968V11.5964V11.596V11.5957V11.5953V11.595V11.5946V11.5943V11.594V11.5936V11.5933V11.5929V11.5926V11.5923V11.5919V11.5916V11.5913V11.5909V11.5906V11.5903V11.5899V11.5896V11.5893V11.589V11.5887V11.5884V11.588V11.5877V11.5874V11.5871V11.5868V11.5865V11.5862V11.5859V11.5856V11.5853V11.585V11.5847V11.5844V11.5841V11.5838V11.5835V11.5833V11.583V11.5827V11.5824V11.5821V11.5818V11.5816V11.5813V11.581V11.5807V11.5805V11.5802V11.5799V11.5797V11.5794V11.5791V11.5789V11.5786V11.5784V11.5781V11.5779V11.5776V11.5774V11.5771V11.5769V11.5766V11.5764V11.5761V11.5759V11.5756V11.5754V11.5752V11.5749V11.5747V11.5745V11.5742V11.574V11.5738V11.5735V11.5733V11.5731V11.5729V11.5726V11.5724V11.5722V11.572V11.5718V11.5715V11.5713V11.5711V11.5709V11.5707V11.5705V11.5703V11.5701V11.5699V11.5697V11.5695V11.5693V11.5691V11.5689V11.5687V11.5685V11.5683V11.5681V11.5679V11.5677V11.5675V11.5674V11.5672V11.567V11.5668V11.5666V11.5664V11.5663V11.5661V11.5659V11.5657V11.5656V11.5654V11.5652V11.5651V11.5649V11.5647V11.5646V11.5644V11.5642V11.5641V11.5639V11.5637V11.5636V11.5634V11.5633V11.5631V11.563V11.5628V11.5627V11.5625V11.5624V11.5622V11.5621V11.5619V11.5618V11.5616V11.5615V11.5614V11.5612V11.5611V11.561V11.5608V11.5607V11.5605V11.5604V11.5603V11.5602V11.56V11.5599V11.5598V11.5596V11.5595V11.5594V11.5593V11.5592V11.559V11.5589V11.5588V11.5587V11.5586V11.5584V11.5583V11.5582V11.5581V11.558V11.5579V11.5578V11.5577V11.5576V11.5575V11.5573V11.5572V11.5571V11.557V11.5569V11.5568V11.5567V11.5566V11.5565V11.5564V11.5564V11.5563V11.5562V11.5561V11.556V11.5559V11.5558V11.5557V11.5556V11.5555V11.5555V11.5554V11.5553V11.5552V11.5551V11.555V11.555V11.5549V11.5548V11.5547V11.5546V11.5546V11.5545V11.5544V11.5543V11.5543V11.5542V11.5541V11.5541V11.554V11.5539V11.5538V11.5538V11.5537V11.5536V11.5536V11.5535V11.5535V11.5534V11.5533V11.5533V11.5532V11.5531V11.5531V11.553V11.553V11.5529V11.5529V11.5528V11.5527V11.5527V11.5526V11.5526V11.5525V11.5525V11.5524V11.5524V11.5523V11.5523V11.5522V11.5522V11.5521V11.5521V11.5521V11.552V11.552V11.5519V11.5519V11.5518V11.5518V11.5518V11.5517V11.5517V11.5516V11.5516V11.5516V11.5515V11.5515V11.5515V11.5514V11.5514V11.5514V11.5513V11.5513V11.5513V11.5512V11.5512V11.5512V11.5511V11.5511V11.5511V11.551V11.551V11.551V11.551V11.5509V11.5509V11.5509V11.5509V11.5508V11.5508V11.5508V11.5508V11.5507V11.5507V11.5507V11.5507V11.5506V11.5506V11.5506V11.5506V11.5506V11.5506V11.5505V11.5505V11.5505V11.5505V11.5505V11.5504V11.5504V11.5504V11.5504V11.5504V11.5503V11.5503V11.5503V11.5503V11.5502V11.5502V11.5502V11.5502V11.5502V11.5502V11.5501V11.5501V11.5501V11.5501V11.5501V11.55V11.55V11.55V11.55V9.45V8.95H20.8045H14.3227H12.3426L12.8227 6.94121L12.8245 6.93357L12.8261 6.92588L13.4534 3.88088ZM20.9091 7.85C21.6082 7.85 22.2092 8.31248 22.4198 8.95H22.3955V9.45V11.55C22.3955 11.6578 22.3951 11.7651 22.3848 11.868C22.3741 11.9763 22.3558 12.0372 22.3433 12.0622L22.3362 12.0764L22.33 12.0911L19.1947 19.5438C19.1945 19.5441 19.1944 19.5445 19.1942 19.5448C18.954 20.1065 18.3962 20.5 17.7727 20.5H8.36364C7.49182 20.5 6.77273 19.7809 6.77273 18.9V8.4C6.77273 7.87494 6.94452 7.52244 7.20083 7.32937L7.22923 7.30798L7.25432 7.28279L13.8165 0.692101L14.5657 1.3762C14.7416 1.6525 14.8682 1.95002 14.8682 2.205V2.46651L13.834 7.24422L13.7029 7.85H14.3227H20.9091ZM2.59091 18.9V10.5H2.09091H1.59091V18.9H2.09091H2.59091ZM0.5 20.5V8.9H3.68182V20.5H0.5Z" fill="black" stroke="black"/>
</svg>
