<svg width="39" height="37" viewBox="0 0 39 37" fill="none" xmlns="http://www.w3.org/2000/svg">
<path d="M16.4155 31.7441V32.2441H16.9155H21.6886H22.1886H22.2408V31.7441H22.6886V22.5365V22.0365H22.1886H16.9155H16.4155V22.5365V31.7441ZM23.2549 21.5613V32.7194H15.9015V21.5613H23.2549Z" stroke="#81B3D2"/>
<path d="M33.8313 35.8552H35.994V36.3305H3.63253V35.8552H5.16867H5.66867V35.3552V16.126V14.9408L4.81974 15.7679L1.09639 19.3959L0.715975 19.0252L19.4756 0.697314L26.2789 7.27782L27.1265 8.09768V6.91843V0.703483H33.3313V13.9386V14.1495L33.4824 14.2967L38.2835 18.9748L37.9036 19.345L34.1803 15.7171L33.3313 14.8899V16.0752V35.3552V35.8552H33.8313ZM28.1406 1.22961H27.6406V1.72961V8.44455V8.65547L27.7916 8.80266L31.9161 12.8215L32.7651 13.6486V12.4633V1.72961V1.22961H32.2651H28.1406ZM6.23494 35.3043V35.8043H6.73494H31.7651H32.2651H32.3173V35.3043H32.7651V14.5999V14.389L32.614 14.2418L19.8228 1.77846L19.4732 1.43777L19.1242 1.77917L6.38527 14.2425L6.23494 14.3896V14.5999V35.3043Z" stroke="#81B3D2"/>
<path d="M19.5783 17.3048C17.6536 17.3048 16.0582 15.7401 16.0582 13.8369C16.0582 11.9377 17.5972 10.4198 19.5783 10.4198C21.568 10.4198 23.1506 11.946 23.1506 13.8369C23.1506 15.736 21.5595 17.3048 19.5783 17.3048ZM22.6888 13.8369C22.6888 12.1178 21.2452 10.7933 19.5783 10.7933C17.9048 10.7933 16.4679 12.175 16.4679 13.8369C16.4679 15.5559 17.9114 16.8804 19.5783 16.8804C21.3105 16.8804 22.6888 15.4922 22.6888 13.8369Z" stroke="#81B3D2"/>
<path d="M9.32324 21.5613H9.88951V22.5452H9.32324V21.5613Z" stroke="#81B3D2"/>
<path d="M12.4036 21.5613H12.9698V22.5452H12.4036V21.5613Z" stroke="#81B3D2"/>
<path d="M9.32324 24.6128H9.88951V25.5968H9.32324V24.6128Z" stroke="#81B3D2"/>
<path d="M12.4036 24.6128H12.9698V25.5968H12.4036V24.6128Z" stroke="#81B3D2"/>
<path d="M25.978 21.5613H26.5443V22.5452H25.978V21.5613Z" stroke="#81B3D2"/>
<path d="M29.1106 21.5613H29.6769V22.5452H29.1106V21.5613Z" stroke="#81B3D2"/>
<path d="M25.978 24.6128H26.5443V25.5968H25.978V24.6128Z" stroke="#81B3D2"/>
<path d="M29.1106 24.6128H29.6769V25.5968H29.1106V24.6128Z" stroke="#81B3D2"/>
</svg>
